<svg width="55" height="55" viewBox="0 0 55 55" fill="none" xmlns="http://www.w3.org/2000/svg">
<g id="Logo">
<rect id="background" width="55" height="55" rx="5" fill="#FF7F5C"/>
<g id="logo">
<path id="Vector (Stroke)" fill-rule="evenodd" clip-rule="evenodd" d="M21.7716 12.606C22.3574 12.0202 23.3071 12.0202 23.8929 12.606L26.9989 15.712L30.1049 12.606C30.6907 12.0202 31.6404 12.0202 32.2262 12.606C32.812 13.1918 32.812 14.1415 32.2262 14.7273L28.0596 18.8939C27.4738 19.4797 26.524 19.4797 25.9382 18.8939L21.7716 14.7273C21.1858 14.1415 21.1858 13.1918 21.7716 12.606ZM17.147 15.276C17.9472 15.0616 18.7697 15.5365 18.9841 16.3367L20.5092 22.0284C20.6122 22.4127 20.5583 22.8221 20.3594 23.1667C20.1605 23.5112 19.8329 23.7626 19.4486 23.8656L13.7568 25.3907C12.9566 25.6051 12.1341 25.1302 11.9197 24.33C11.7053 23.5298 12.1802 22.7073 12.9804 22.4929L17.2232 21.356L16.0864 17.1131C15.872 16.3129 16.3468 15.4904 17.147 15.276ZM36.8508 15.276C37.651 15.4904 38.1259 16.3129 37.9114 17.1131L36.7746 21.356L41.0175 22.4929C41.8177 22.7073 42.2925 23.5298 42.0781 24.33C41.8637 25.1302 41.0412 25.6051 40.241 25.3907L34.5492 23.8656C33.749 23.6511 33.2742 22.8286 33.4886 22.0284L35.0137 16.3367C35.2281 15.5365 36.0506 15.0616 36.8508 15.276ZM11.9196 29.67C12.1341 28.8698 12.9566 28.3949 13.7568 28.6093L19.4485 30.1344C20.2487 30.3489 20.7236 31.1714 20.5092 31.9716L18.9841 37.6633C18.7697 38.4635 17.9472 38.9384 17.147 38.724C16.3468 38.5096 15.8719 37.6871 16.0863 36.8869L17.2232 32.644L12.9803 31.5071C12.1801 31.2927 11.7052 30.4702 11.9196 29.67ZM42.0781 29.67C42.2925 30.4702 41.8177 31.2927 41.0175 31.5071L36.7746 32.644L37.9114 36.8869C38.1259 37.6871 37.651 38.5096 36.8508 38.724C36.0506 38.9384 35.2281 38.4635 35.0137 37.6633L33.4886 31.9716C33.2742 31.1714 33.749 30.3489 34.5492 30.1344L40.241 28.6093C41.0412 28.3949 41.8637 28.8698 42.0781 29.67ZM26.9989 38.2879L23.8929 41.394C23.3071 41.9797 22.3574 41.9797 21.7716 41.394C21.1858 40.8082 21.1858 39.8584 21.7716 39.2726L25.9382 35.106C26.524 34.5202 27.4738 34.5202 28.0596 35.106L32.2262 39.2726C32.812 39.8584 32.812 40.8082 32.2262 41.394C31.6404 41.9797 30.6907 41.9797 30.1049 41.394L26.9989 38.2879Z" fill="#FFB39E"/>
<path id="Vector (Stroke)_2" fill-rule="evenodd" clip-rule="evenodd" d="M26.9994 16.3334C27.8278 16.3334 28.4994 17.0049 28.4994 17.8334V24.402L34.1879 21.1177C34.9054 20.7035 35.8228 20.9493 36.237 21.6668C36.6512 22.3842 36.4054 23.3016 35.6879 23.7158L29.9994 27.0001L35.6879 30.2844C36.4054 30.6986 36.6512 31.616 36.237 32.3334C35.8228 33.0509 34.9054 33.2967 34.1879 32.8825L28.4994 29.5982V36.1667C28.4994 36.9951 27.8278 37.6667 26.9994 37.6667C26.171 37.6667 25.4994 36.9951 25.4994 36.1667V29.5981L19.8108 32.8825C19.0934 33.2967 18.176 33.0509 17.7618 32.3334C17.3475 31.616 17.5934 30.6986 18.3108 30.2844L23.9994 27.0001L18.3108 23.7158C17.5934 23.3016 17.3476 22.3842 17.7618 21.6668C18.176 20.9493 19.0934 20.7035 19.8108 21.1177L25.4994 24.402V17.8334C25.4994 17.0049 26.171 16.3334 26.9994 16.3334Z" fill="white"/>
</g>
</g>
</svg>
