<svg width="35" height="39" viewBox="0 0 35 39" fill="none" xmlns="http://www.w3.org/2000/svg">
<g id="Group">
<path id="Vector" d="M17.5 10.2205C22.054 10.2205 25.75 14.2297 25.75 19.1696C25.75 24.1095 22.054 28.1188 17.5 28.1188C12.946 28.1188 9.25 24.1095 9.25 19.1696C9.25 14.2297 12.946 10.2205 17.5 10.2205Z" fill="#E17B1C" stroke="#DDCA1F" stroke-width="2" stroke-linecap="round"/>
<g id="Group_2">
<g id="Vector_2">
<path d="M17.5 35.278V37.0679V35.278ZM32.35 19.1695H34H32.35ZM17.5 3.06107V1.27124V3.06107ZM2.65 19.1695H1H2.65Z" fill="#DDCA1F"/>
<path d="M17.5 35.278V37.0679M32.35 19.1695H34M17.5 3.06107V1.27124M2.65 19.1695H1" stroke="#DDCA1F" stroke-width="2" stroke-linecap="round"/>
</g>
<g id="Vector_3">
<path d="M28.225 30.8035L29.05 31.6984L28.225 30.8035ZM28.225 7.53566L29.05 6.64075L28.225 7.53566ZM6.77495 7.53566L5.94995 6.64075L6.77495 7.53566ZM6.77495 30.8035L5.94995 31.6984L6.77495 30.8035Z" fill="#DDCA1F"/>
<path d="M28.225 30.8035L29.05 31.6984M28.225 7.53566L29.05 6.64075M6.77495 7.53566L5.94995 6.64075M6.77495 30.8035L5.94995 31.6984" stroke="#DDCA1F" stroke-width="2" stroke-linecap="round"/>
</g>
</g>
</g>
</svg>
